<?xml version="1.0" encoding="UTF-8" standalone="no"?>
<svg
   xmlns:dc="http://purl.org/dc/elements/1.1/"
   xmlns:cc="http://creativecommons.org/ns#"
   xmlns:rdf="http://www.w3.org/1999/02/22-rdf-syntax-ns#"
   xmlns:svg="http://www.w3.org/2000/svg"
   xmlns="http://www.w3.org/2000/svg"
   xmlns:sodipodi="http://sodipodi.sourceforge.net/DTD/sodipodi-0.dtd"
   xmlns:inkscape="http://www.inkscape.org/namespaces/inkscape"
   id="svg514"
   version="1.1"
   viewBox="0 0 22.967823 12.889379"
   height="12.889379mm"
   width="22.967823mm"
   inkscape:version="0.91 r13725"
   sodipodi:docname="factos_logo.svg">
  <sodipodi:namedview
     pagecolor="#ffffff"
     bordercolor="#666666"
     borderopacity="1"
     objecttolerance="10"
     gridtolerance="10"
     guidetolerance="10"
     inkscape:pageopacity="0"
     inkscape:pageshadow="2"
     inkscape:window-width="1366"
     inkscape:window-height="713"
     id="namedview7"
     showgrid="false"
     inkscape:zoom="8.6539766"
     inkscape:cx="43.975878"
     inkscape:cy="19.269566"
     inkscape:window-x="0"
     inkscape:window-y="0"
     inkscape:window-maximized="1"
     inkscape:current-layer="svg514" />
  <defs
     id="defs508" />
  <metadata
     id="metadata511">
    <rdf:RDF>
      <cc:Work
         rdf:about="">
        <dc:format>image/svg+xml</dc:format>
        <dc:type
           rdf:resource="http://purl.org/dc/dcmitype/StillImage" />
        <dc:title />
      </cc:Work>
    </rdf:RDF>
  </metadata>
  <g
     transform="translate(-61.087516,-131.80546)"
     id="layer1">
    <path
       style="fill:#324b83;fill-opacity:1;stroke:none;stroke-width:0.03001412"
       d="m 61.126833,134.01768 0,7.57535 0,0.003 1.05353,0 0,-3.54775 1.44662,0 0,-0.7534 -1.44662,0 0,-2.51768 1.86995,0 0,-0.75934 z m 16.397531,0.87634 c -1.10346,0.0446 -2.00271,0.97618 -2.0059,2.08276 -0.003,0.49032 0.16983,0.96478 0.48495,1.34036 0.40728,0.48761 0.63096,1.1046 0.63189,1.74138 -0.003,0.0184 -0.012,0.0891 0.007,0.17916 0.0107,0.0513 0.0309,0.11024 0.078,0.16137 0.0471,0.0511 0.1242,0.0865 0.206291,0.0865 l 1.362699,0 c 0.0828,0 0.160421,-0.0342 0.20827,-0.0856 0.0479,-0.0514 0.0678,-0.11162 0.078,-0.16334 0.017,-0.0855 0.009,-0.14992 0.005,-0.17409 l 0,-5.3e-4 c 1.3e-4,-0.61884 0.22523,-1.23445 0.66326,-1.77982 0.671223,-0.84299 0.588893,-2.05857 -0.18708,-2.80592 -0.41072,-0.3948 -0.96476,-0.60445 -1.53169,-0.58215 z m -7.66353,0.57933 c -0.225111,-0.003 -0.44705,0.0297 -0.66015,0.0958 -0.17108,0.054 -0.330091,0.14417 -0.465151,0.26423 -0.12906,0.12306 -0.22826,0.2672 -0.297299,0.42927 -0.078,0.17709 -0.13209,0.36604 -0.1591,0.55813 -0.033,0.22811 -0.0507,0.45635 -0.0481,0.68446 l 0,2.13983 c 0,0.21611 0.0152,0.43519 0.0452,0.64829 0.027,0.18909 0.0808,0.37229 0.15882,0.54937 0.069,0.16208 0.16813,0.30914 0.29419,0.4352 0.132059,0.12606 0.291349,0.21918 0.46544,0.27921 0.21309,0.072 0.43815,0.10475 0.66325,0.10202 l 2.91e-4,0 c 0.2101,0.003 0.41713,-0.0269 0.61522,-0.0839 0.16208,-0.054 0.31226,-0.13821 0.43831,-0.24926 0.12006,-0.11104 0.2159,-0.24613 0.27893,-0.3962 0.072,-0.16508 0.12304,-0.33612 0.15006,-0.5132 0.033,-0.2071 0.048,-0.41433 0.0452,-0.62144 l 0,-0.45017 -0.79863,0 0,0.44735 c 0,0.14106 -0.003,0.26101 -0.006,0.34505 -0.003,0.084 -0.0119,0.1801 -0.0268,0.28515 -0.009,0.084 -0.0332,0.1681 -0.0692,0.24614 -0.033,0.063 -0.075,0.12306 -0.12604,0.17408 -0.054,0.057 -0.12589,0.0991 -0.20093,0.1201 -0.0961,0.027 -0.19231,0.0386 -0.29136,0.0359 -0.29413,0 -0.49805,-0.0839 -0.61211,-0.26395 -0.114061,-0.18008 -0.171261,-0.4953 -0.171261,-0.95151 l 0,-2.39813 c 0,-0.14106 0.003,-0.26117 0.009,-0.35721 0.006,-0.10205 0.0182,-0.20107 0.0361,-0.30012 0.012,-0.09 0.0389,-0.17415 0.078,-0.25519 0.036,-0.066 0.0842,-0.12598 0.13819,-0.18001 0.06,-0.057 0.13488,-0.0991 0.21591,-0.12011 0.099,-0.027 0.20129,-0.0417 0.30634,-0.039 0.072,0 0.14405,0.006 0.21308,0.0181 0.054,0.012 0.10789,0.024 0.16192,0.045 0.048,0.018 0.09,0.0482 0.12604,0.0842 0.033,0.033 0.0631,0.0659 0.0901,0.10485 0.027,0.0391 0.0479,0.0871 0.0599,0.13508 0.018,0.06 0.03,0.11127 0.039,0.15628 0.012,0.06 0.0181,0.12281 0.0181,0.18284 0.006,0.078 0.009,0.14125 0.009,0.19528 0.003,0.051 0.003,0.12286 0.003,0.2159 l 0,0.42927 0.801173,0 0,-0.48324 c 0,-0.57328 -0.11698,-1.00837 -0.3541,-1.30251 -0.23711,-0.29414 -0.62737,-0.44113 -1.17363,-0.44113 z m 12.218733,0 c -0.44121,0.006 -0.78937,0.12889 -1.04448,0.37501 -0.25513,0.24611 -0.38095,0.58819 -0.38095,1.0264 0,0.29714 0.048,0.54942 0.14102,0.75652 0.093,0.2041 0.24298,0.39916 0.44707,0.58526 l 1.01453,0.90346 c 0.11405,0.10805 0.20119,0.19499 0.26422,0.25802 0.072,0.075 0.13808,0.15599 0.1981,0.24303 0.069,0.093 0.11703,0.19529 0.15007,0.30634 0.03,0.11406 0.045,0.23404 0.045,0.3541 0,0.23411 -0.0599,0.40822 -0.17098,0.53128 -0.11105,0.12306 -0.27928,0.18313 -0.49538,0.18313 -0.51924,-0.003 -0.80422,-0.43538 -0.85825,-1.30278 l -0.75341,0.20432 c 0.03,0.54625 0.17994,0.9752 0.44707,1.29034 0.26713,0.31516 0.65435,0.47138 1.16459,0.47138 0.4322,0 0.7834,-0.12905 1.05352,-0.38716 0.26712,-0.25813 0.40214,-0.60932 0.40214,-1.05353 0.003,-0.34816 -0.0779,-0.65719 -0.23399,-0.93032 -0.17108,-0.28813 -0.3873,-0.54628 -0.63641,-0.76839 l -1.02329,-0.90346 c -0.12306,-0.10505 -0.22529,-0.23423 -0.30633,-0.37529 -0.06,-0.12006 -0.0899,-0.26699 -0.0899,-0.44708 0,-0.41419 0.22198,-0.63634 0.6692,-0.66637 0.10804,-0.009 0.21926,0.009 0.32131,0.048 0.084,0.033 0.1618,0.0841 0.22183,0.15317 0.063,0.075 0.1111,0.15904 0.14413,0.25208 0.039,0.099 0.0662,0.20412 0.0842,0.30916 0.015,0.10205 0.03,0.21893 0.039,0.351 l 0.7113,-0.19811 c -0.048,-0.54025 -0.19208,-0.93641 -0.4352,-1.19454 -0.24311,-0.25812 -0.60648,-0.38403 -1.08969,-0.375 z m -4.529773,0.003 c 0.82954,-0.0334 1.52856,0.61021 1.56475,1.43985 0.0137,0.36485 -0.10016,0.71637 -0.32782,0.99955 -0.47957,0.59947 -0.73118,1.28625 -0.76697,1.98441 l -0.82123,0 c -0.0353,-0.71596 -0.28522,-1.40483 -0.74776,-1.95869 -0.22482,-0.26923 -0.34703,-0.61107 -0.34703,-0.96452 0.003,-0.79661 0.6522,-1.46729 1.44606,-1.5006 z m -11.929921,0.0571 -1.293459,6.05977 0.80117,0 0.288259,-1.52773 1.233541,0 0.276099,1.52773 0.80456,0 -1.29374,-6.05977 z m 6.092841,0 0,0.62426 1.1075,0 0,5.43551 0.846389,0 0,-5.43551 1.065681,0 0,-0.62426 z m -5.67855,1.19144 0.50727,2.73753 -1.01453,0 z m 10.88911,3.97701 c -0.096,0 -0.17097,0.0779 -0.17097,0.17097 0,0.096 0.0779,0.17126 0.17097,0.17126 l 1.37456,0 c 0.096,0 0.17125,-0.0782 0.17125,-0.17126 0,-0.096 -0.0782,-0.17097 -0.17125,-0.17097 z m 0.25801,0.54627 c -0.096,0 -0.17098,0.0779 -0.17098,0.17097 0,0.0961 0.0779,0.17126 0.17098,0.17126 l 0.85543,0 c 0.096,0 0.17125,-0.0782 0.17125,-0.17126 0,-0.093 -0.0752,-0.17097 -0.17125,-0.17097 z m -12.980911,2.35603 c -0.10504,0 -0.17709,0.0272 -0.22212,0.0842 -0.045,0.057 -0.0661,0.13792 -0.0661,0.24897 l 0,0.39931 c 0,0.048 0.003,0.0961 0.015,0.14413 0.009,0.036 0.024,0.0718 0.0481,0.10484 0.024,0.03 0.0541,0.0542 0.0902,0.0692 0.042,0.018 0.09,0.024 0.13508,0.024 0.10205,0 0.17399,-0.0331 0.21901,-0.0901 0.045,-0.057 0.0661,-0.14103 0.0661,-0.25209 l 0,-0.3993 c 0,-0.10806 -0.0211,-0.19195 -0.0661,-0.24897 -0.045,-0.057 -0.11396,-0.0842 -0.21901,-0.0842 z m 2.803111,0 c -0.10205,0 -0.17401,0.0272 -0.219021,0.0842 -0.045,0.057 -0.0658,0.13792 -0.0658,0.24897 l 0,0.39931 c 0,0.048 0.003,0.0961 0.015,0.14413 0.009,0.036 0.0237,0.0718 0.0477,0.10484 0.024,0.03 0.0541,0.0542 0.0901,0.0692 0.042,0.018 0.0901,0.024 0.13508,0.024 0.10205,0 0.16818,-0.0331 0.21619,-0.0901 0.048,-0.057 0.069,-0.14103 0.069,-0.25209 l 0,-0.3993 c 0,-0.10806 -0.0211,-0.19195 -0.0661,-0.24897 -0.045,-0.057 -0.12008,-0.0842 -0.22213,-0.0842 z m 1.945129,0 c -0.039,-0.003 -0.0781,0.003 -0.114179,0.015 -0.06,0.018 -0.10797,0.0631 -0.131971,0.1201 -0.012,0.033 -0.0211,0.0662 -0.0271,0.0992 -0.006,0.039 -0.009,0.078 -0.009,0.11699 l 0,0.37219 c 0,0.039 0.003,0.0781 0.009,0.11417 0.003,0.033 0.0151,0.0658 0.0271,0.0958 0.012,0.027 0.0299,0.0542 0.0509,0.0752 0.024,0.021 0.0511,0.039 0.0811,0.048 0.036,0.012 0.0752,0.0178 0.114171,0.0178 l 5.55e-4,5.6e-4 c 0.036,0 0.0721,-0.006 0.10513,-0.0121 0.027,-0.009 0.0542,-0.024 0.0752,-0.045 0.021,-0.018 0.036,-0.0422 0.0481,-0.0692 0.015,-0.03 0.0241,-0.0598 0.0268,-0.0899 0.006,-0.036 0.009,-0.0719 0.009,-0.10796 l 0,-0.0783 -0.1379,0 0,0.0752 c 0,0.024 0.003,0.0449 0,0.0599 -0.003,0.015 -0.003,0.03 -0.006,0.0481 0,0.018 -0.006,0.03 -0.0119,0.045 -0.006,0.012 -0.0122,0.0212 -0.0212,0.0302 -0.009,0.012 -0.0238,0.0182 -0.0359,0.0209 -0.018,0.003 -0.0331,0.006 -0.0511,0.006 -0.039,0.006 -0.0808,-0.0119 -0.10484,-0.045 -0.021,-0.03 -0.0302,-0.087 -0.0302,-0.16504 l 0,-0.41712 c 0,-0.0241 9e-5,-0.048 0.003,-0.063 0,-0.018 0.003,-0.0331 0.006,-0.0511 0.003,-0.015 0.009,-0.03 0.015,-0.045 0.006,-0.012 0.015,-0.0209 0.024,-0.03 0.012,-0.012 0.024,-0.0185 0.039,-0.0212 0.018,-0.003 0.0362,-0.006 0.0542,-0.006 0.012,0 0.0238,9e-5 0.0359,0.003 0.009,0.003 0.0209,0.006 0.03,0.009 0.009,0.003 0.0152,0.009 0.0212,0.015 0.006,0.006 0.009,0.0118 0.015,0.0178 0.003,0.006 0.006,0.015 0.009,0.024 0.003,0.009 0.003,0.0181 0.006,0.0271 0.003,0.009 0.003,0.0209 0.003,0.03 0.003,0.012 0.003,0.0241 0.003,0.0331 l 0,0.11107 0.13819,0 0,-0.0839 c 0,-0.099 -0.021,-0.17421 -0.063,-0.22523 -0.042,-0.048 -0.10799,-0.0752 -0.20403,-0.0752 z m 9.454351,0 c -0.066,-0.003 -0.13201,0.018 -0.18002,0.063 -0.0451,0.048 -0.0689,0.11426 -0.0661,0.1803 -0.003,0.045 0.006,0.09 0.024,0.13197 0.018,0.039 0.045,0.075 0.078,0.10202 l 0.17719,0.15599 c 0.018,0.018 0.0359,0.0332 0.045,0.0452 0.015,0.012 0.0242,0.0268 0.0361,0.0418 0.009,0.018 0.0177,0.036 0.0237,0.054 0.006,0.0211 0.009,0.0392 0.009,0.0602 0.003,0.033 -0.009,0.066 -0.03,0.093 -0.024,0.021 -0.054,0.0327 -0.0871,0.03 -0.09,0 -0.14103,-0.0749 -0.15006,-0.22495 l -0.13197,0.0359 c 0,0.081 0.027,0.1622 0.078,0.22523 0.054,0.057 0.129,0.0868 0.20403,0.0808 l 0,2.9e-4 c 0.066,0.003 0.13211,-0.0212 0.18313,-0.0692 0.048,-0.048 0.0717,-0.11409 0.069,-0.18312 0,-0.057 -0.0148,-0.11392 -0.0418,-0.16193 -0.03,-0.051 -0.0661,-0.0961 -0.11106,-0.13509 l -0.17719,-0.15599 c -0.021,-0.0181 -0.039,-0.039 -0.054,-0.063 -0.0123,-0.024 -0.015,-0.0512 -0.015,-0.0783 0,-0.0721 0.0389,-0.11098 0.11699,-0.117 0.021,0 0.0391,0.003 0.0571,0.009 0.015,0.006 0.027,0.0151 0.039,0.0271 0.009,0.015 0.018,0.03 0.024,0.0449 0.006,0.018 0.0122,0.036 0.015,0.054 0.003,0.0211 0.006,0.0392 0.006,0.0602 l 0.12321,-0.0361 c -0.009,-0.0931 -0.0332,-0.16515 -0.0752,-0.20715 -0.042,-0.0421 -0.10501,-0.0658 -0.18905,-0.063 z m -15.523451,2.9e-4 c -0.0391,-0.003 -0.0779,0.003 -0.11389,0.015 -0.06,0.018 -0.10796,0.0628 -0.13197,0.11982 -0.012,0.033 -0.0211,0.0662 -0.0271,0.0992 -0.006,0.039 -0.009,0.078 -0.009,0.117 l 0,0.37218 c 0,0.039 0.003,0.0781 0.009,0.11417 0.003,0.033 0.0121,0.0658 0.0271,0.0958 0.012,0.027 0.0298,0.0542 0.0508,0.0752 0.024,0.021 0.0511,0.039 0.0811,0.048 0.036,0.012 0.0749,0.0181 0.11389,0.0181 l 0,2.9e-4 c 0.036,0 0.0721,-0.003 0.11417,-0.0181 0.027,-0.009 0.0541,-0.024 0.0752,-0.045 0.021,-0.018 0.0358,-0.0422 0.0477,-0.0692 0.012,-0.03 0.021,-0.0598 0.024,-0.0899 0.006,-0.036 0.009,-0.0722 0.009,-0.10824 l 0,-0.078 -0.13791,0 0,0.078 c 0,0.024 0.003,0.0452 0,0.0602 -0.003,0.015 -0.003,0.0301 -0.006,0.0481 -0.003,0.018 -0.006,0.03 -0.0119,0.045 -0.006,0.012 -0.0119,0.0209 -0.0209,0.03 -0.012,0.012 -0.0242,0.0185 -0.0361,0.0212 -0.018,0.003 -0.0329,0.006 -0.0508,0.006 -0.0391,0.006 -0.0811,-0.0119 -0.10513,-0.045 -0.021,-0.03 -0.03,-0.0873 -0.03,-0.16532 l 0,-0.41713 0,-0.063 c 0,-0.015 0.003,-0.0329 0.006,-0.0509 0.003,-0.015 0.009,-0.0302 0.015,-0.0452 0.006,-0.012 0.015,-0.0209 0.024,-0.03 0.012,-0.012 0.024,-0.0182 0.039,-0.0209 0.018,-0.003 0.036,-0.006 0.054,-0.006 0.012,0 0.0242,-1.9e-4 0.0361,0.003 0.009,0.003 0.0178,0.006 0.0269,0.009 0.006,0.003 0.0152,0.009 0.0212,0.015 0.006,0.006 0.012,0.0121 0.015,0.0181 0.003,0.006 0.006,0.015 0.009,0.024 0.003,0.009 0.003,0.0178 0.006,0.0269 0.003,0.009 0.003,0.0212 0.003,0.0302 l 0,0.0328 0,0.039 0,0.0752 0.13791,0 0,-0.0839 c 0,-0.099 -0.0179,-0.17421 -0.0599,-0.22523 -0.042,-0.048 -0.10827,-0.0749 -0.20432,-0.0749 z m 12.158821,0 c -0.10204,0 -0.17401,0.0269 -0.21901,0.0839 -0.045,0.057 -0.0661,0.13819 -0.0661,0.24925 l 0,0.39903 c 0,0.048 0.003,0.0961 0.015,0.14412 0.009,0.036 0.024,0.0721 0.0481,0.10513 0.024,0.03 0.0541,0.054 0.0901,0.069 0.042,0.018 0.0901,0.024 0.13508,0.024 0.10205,0 0.17118,-0.0331 0.21619,-0.0901 0.045,-0.057 0.069,-0.14103 0.069,-0.25208 l 0,-0.39903 c 0,-0.10805 -0.0211,-0.19222 -0.0661,-0.24925 -0.045,-0.057 -0.120079,-0.0839 -0.222129,-0.0839 z m 4.09401,0 c -0.10205,0 -0.17711,0.0269 -0.22212,0.0839 -0.045,0.057 -0.0661,0.13819 -0.0661,0.24925 l 0,0.39903 c 0,0.048 0.006,0.0961 0.015,0.14412 0.009,0.036 0.024,0.0721 0.0481,0.10513 0.024,0.03 0.0541,0.054 0.0901,0.069 0.042,0.018 0.0901,0.024 0.13509,0.024 0.10204,0 0.174,-0.0331 0.21901,-0.0901 0.045,-0.057 0.0692,-0.14103 0.0692,-0.25208 l 0,-0.39903 c 0,-0.10805 -0.0211,-0.19222 -0.0661,-0.24925 -0.045,-0.057 -0.120079,-0.0839 -0.222119,-0.0839 z m 3.082303,0 c -0.10205,0 -0.17711,0.0269 -0.22212,0.0839 -0.045,0.057 -0.0658,0.13819 -0.0658,0.24925 l 0,0.39903 c 0,0.048 0.006,0.0961 0.015,0.14412 0.009,0.036 0.024,0.0721 0.0481,0.10513 0.024,0.03 0.0538,0.054 0.0899,0.069 0.042,0.018 0.0901,0.024 0.13509,0.024 0.10204,0 0.17429,-0.0331 0.21929,-0.0901 0.045,-0.057 0.069,-0.14103 0.069,-0.25208 l 0,-0.39903 c 0,-0.10805 -0.0211,-0.19222 -0.0661,-0.24925 -0.045,-0.057 -0.120079,-0.0839 -0.222119,-0.0839 z m 1.4647,0 c -0.066,-0.003 -0.13199,0.018 -0.18001,0.063 -0.045,0.048 -0.0689,0.11399 -0.0661,0.18002 0,0.045 0.006,0.09 0.024,0.13197 0.018,0.039 0.045,0.0723 0.078,0.1023 l 0.17719,0.156 0.045,0.045 c 0.012,0.012 0.0241,0.0271 0.0331,0.0421 0.012,0.015 0.0211,0.036 0.0271,0.054 0.006,0.021 0.009,0.0389 0.009,0.0599 0.003,0.033 -0.009,0.0662 -0.0302,0.0933 -0.024,0.021 -0.054,0.0327 -0.087,0.03 -0.09,0 -0.14103,-0.0752 -0.15005,-0.22524 l -0.13198,0.0362 c 0,0.081 0.027,0.16191 0.078,0.22494 0.054,0.057 0.129,0.0871 0.20403,0.0811 0.066,0.003 0.13211,-0.0209 0.18313,-0.069 0.048,-0.048 0.0717,-0.1141 0.069,-0.18313 0,-0.057 -0.0148,-0.11419 -0.0418,-0.16221 -0.03,-0.051 -0.0661,-0.0961 -0.11106,-0.13508 l -0.177181,-0.156 c -0.021,-0.018 -0.039,-0.039 -0.054,-0.063 -0.009,-0.024 -0.015,-0.051 -0.015,-0.078 0,-0.072 0.0389,-0.11098 0.11699,-0.117 0.021,0 0.0391,0.003 0.0571,0.009 0.015,0.006 0.03,0.0148 0.039,0.0268 0.009,0.015 0.018,0.0302 0.024,0.0452 0.006,0.018 0.0122,0.036 0.015,0.054 0.003,0.015 0.003,0.0359 0.006,0.0599 l 0.12322,-0.0359 c -0.009,-0.093 -0.0332,-0.16514 -0.0752,-0.20715 -0.042,-0.042 -0.10502,-0.0658 -0.18906,-0.063 z m -13.992584,0.003 c -0.10506,0 -0.17712,0.0272 -0.222129,0.0842 -0.045,0.057 -0.0658,0.13792 -0.0658,0.24897 l 0,0.39932 c 0,0.048 0.003,0.093 0.015,0.14101 0.009,0.036 0.0241,0.0718 0.0481,0.10484 0.024,0.03 0.0538,0.0542 0.0899,0.0692 0.042,0.018 0.0901,0.024 0.135089,0.024 0.10204,0 0.16817,-0.0331 0.21618,-0.0901 0.048,-0.057 0.069,-0.14103 0.069,-0.25208 l 0,-0.39621 c 0,-0.10805 -0.0208,-0.19194 -0.0659,-0.24897 -0.045,-0.057 -0.11425,-0.0842 -0.21929,-0.0842 z m -8.34374,0.006 0,1.05353 0.14695,0 0,-0.4954 0.20121,0 0,-0.10484 -0.20121,0 0,-0.34817 0.26112,0 0,-0.10512 z m 0.73815,0 -0.22496,1.05353 0.13791,0 0.0511,-0.26706 0.21308,0 0.0481,0.26706 0.14102,0 -0.22495,-1.05353 z m 1.18267,0 0,0.10795 0.19217,0 0,0.94558 0.14695,0 0,-0.94558 0.186231,0 0,-0.10795 z m 1.43476,0 0,1.05353 0.146951,0 0,-0.49807 0.114169,0 0.137911,0.49511 0.144119,0 -0.15006,-0.52818 c 0.0871,-0.027 0.12915,-0.11108 0.12915,-0.24614 0,-0.0961 -0.0242,-0.17108 -0.0752,-0.21308 -0.051,-0.0421 -0.12895,-0.063 -0.23399,-0.063 z m 0.66919,0 0.22806,0.68135 0,0.37218 0.144121,0 0,-0.37218 0.225239,-0.68135 -0.13819,0 -0.159109,0.50727 -0.16192,-0.50727 z m 2.1339,0 0,1.05353 0.147241,0 0,-0.49512 0.200929,0 0,-0.10512 -0.200929,0 0,-0.34817 0.26112,0 0,-0.10512 z m 2.69826,0 -0.0178,1.05353 0.11699,0 0.009,-0.76528 0.17691,0.76528 0.0842,0 0.18001,-0.76528 0.0119,0.76528 0.120111,0 -0.0178,-1.05353 -0.14413,0 -0.18905,0.85543 -0.18624,-0.85543 z m 0.906581,0 0,1.05353 0.14695,0 0,-0.48918 0.114169,0 c 0.084,0 0.147161,-0.0241 0.192171,-0.0721 0.0481,-0.057 0.0719,-0.12889 0.0659,-0.20093 0,-0.096 -0.0179,-0.16517 -0.0599,-0.21619 -0.042,-0.051 -0.105049,-0.0752 -0.198099,-0.0752 z m 0.67824,0 0,0.69943 c 0,0.042 -8e-5,0.0809 0.006,0.12293 0.006,0.033 0.0151,0.0662 0.0271,0.0992 0.012,0.03 0.0301,0.057 0.0511,0.078 0.024,0.021 0.0508,0.039 0.0808,0.048 0.0391,0.012 0.0783,0.0181 0.11728,0.0181 0.039,0 0.078,-0.006 0.117,-0.0181 l -0.001,0 c 0.03,-0.009 0.057,-0.027 0.087,-0.048 0.021,-0.021 0.039,-0.048 0.0481,-0.078 0.012,-0.03 0.0211,-0.0662 0.0271,-0.0992 0.003,-0.042 0.006,-0.0809 0.006,-0.12293 l 0,-0.69943 -0.14102,0 0,0.70537 c 0,0.03 -0.003,0.057 -0.003,0.078 -0.003,0.0211 -0.006,0.0451 -0.0119,0.0661 -0.006,0.021 -0.012,0.039 -0.024,0.054 -0.012,0.012 -0.0271,0.0241 -0.0421,0.0331 -0.0211,0.009 -0.042,0.0121 -0.063,0.0121 -0.0211,0 -0.045,-0.003 -0.063,-0.0121 -0.018,-0.009 -0.0299,-0.0181 -0.0418,-0.0331 -0.012,-0.015 -0.0213,-0.036 -0.024,-0.054 -0.006,-0.0211 -0.009,-0.0451 -0.0121,-0.0661 -0.003,-0.021 -0.003,-0.048 -0.003,-0.078 l 0,-0.70537 z m 0.69632,0 0,0.10824 0.19217,0 0,0.94529 0.14695,0 0,-0.94529 0.18624,0 0,-0.10824 z m 0.83141,0 -0.22495,1.05353 0.13791,0 0.0511,-0.26706 0.21308,0 0.0481,0.26706 0.14102,0 -0.22523,-1.05353 z m 0.40836,0 0,0.10824 0.19188,0 0,0.94529 0.14723,0 0,-0.94529 0.18595,0 0,-0.10824 z m 0.67513,0 0,1.05353 0.14412,0 0,-1.05353 z m 1.14367,0 0,1.05353 0.12293,0 0,-0.72035 0.30634,0.72035 0.093,0 0,-1.05353 -0.12321,0 0,0.69943 -0.30012,-0.69943 z m 0.91534,0 -0.22495,1.05353 0.13791,0 0.0511,-0.26706 0.21308,0 0.0481,0.26706 0.14102,0 -0.22523,-1.05353 z m 0.53722,0 0,1.05353 0.41711,0 0,-0.10485 -0.26988,0 0,-0.94868 z m 3.202413,0 0,0.69943 c 0,0.042 0.003,0.0812 0.009,0.12322 0.003,0.033 0.012,0.0659 0.024,0.0989 0.012,0.03 0.0271,0.057 0.0511,0.078 0.024,0.021 0.0511,0.039 0.0811,0.048 0.039,0.012 0.078,0.0181 0.117,0.0181 0.0388,0 0.0776,-0.006 0.11643,-0.0181 0.03,-0.009 0.06,-0.027 0.087,-0.048 0.024,-0.021 0.0391,-0.048 0.0511,-0.078 0.012,-0.03 0.0213,-0.0659 0.024,-0.0989 0.003,-0.042 0.006,-0.0812 0.006,-0.12322 l 0,-0.69943 -0.14101,0 0,0.70537 c 0,0.03 -1e-4,0.057 -0.003,0.078 -0.003,0.0211 -0.006,0.0451 -0.0119,0.0661 -0.006,0.018 -0.012,0.039 -0.024,0.054 -0.009,0.012 -0.024,0.0241 -0.039,0.0331 -0.0211,0.009 -0.042,0.0121 -0.063,0.0121 -0.0211,0 -0.0453,-0.003 -0.0633,-0.0121 -0.015,-0.009 -0.0298,-0.0181 -0.0418,-0.0331 -0.012,-0.015 -0.018,-0.036 -0.024,-0.054 -0.006,-0.0211 -0.009,-0.0451 -0.0121,-0.0661 -0.003,-0.021 -0.003,-0.048 -0.003,-0.078 l 0,-0.70537 z m -0.567173,2.7e-4 0,1.05325 0.417113,0 0,-0.10484 -0.26988,0 0,-0.94841 z m 1.266603,0 0,0.10796 0.19216,0 0,0.94529 0.14696,0 0,-0.94529 0.18623,0 0,-0.10796 z m 0.67541,0 0,1.05325 0.14413,0 0,-1.05325 z m 1.14056,0 0,1.05325 0.12293,0 0,-0.72034 0.30323,0.72034 0.0961,0 0,-1.05325 -0.12322,0 0,0.69916 -0.30012,-0.69916 z m -3.576563,0.10061 c 0.0244,0 0.0485,0.004 0.0709,0.0133 0.021,0.006 0.0359,0.021 0.045,0.039 0.012,0.018 0.0182,0.0361 0.0209,0.0571 0.003,0.027 0.006,0.0541 0.006,0.0811 l 0,0.46205 c 0,0.027 -0.003,0.0541 -0.006,0.0811 -0.006,0.021 -0.0119,0.0422 -0.0209,0.0602 -0.012,0.018 -0.027,0.0328 -0.045,0.0418 -0.048,0.018 -0.0991,0.018 -0.14412,0 -0.018,-0.009 -0.0331,-0.0239 -0.0421,-0.0418 -0.012,-0.0181 -0.0182,-0.0392 -0.0209,-0.0602 -0.006,-0.027 -0.006,-0.0541 -0.006,-0.0811 l 0,-0.46205 c 0,-0.027 0.003,-0.0541 0.006,-0.0811 0.003,-0.021 0.0119,-0.0391 0.0209,-0.0571 0.009,-0.018 0.0241,-0.033 0.0421,-0.039 0.024,-0.009 0.0488,-0.0133 0.0732,-0.0133 z m 3.082303,0 c 0.0244,0 0.0485,0.004 0.0709,0.0133 0.021,0.009 0.0359,0.021 0.045,0.039 0.012,0.018 0.0184,0.0361 0.0212,0.0571 0.003,0.027 0.006,0.0541 0.006,0.0811 l 0,0.46205 c 0,0.027 -0.003,0.0541 -0.006,0.0811 -0.006,0.021 -0.0121,0.0422 -0.0212,0.0602 -0.012,0.018 -0.027,0.0328 -0.045,0.0418 -0.048,0.018 -0.0991,0.018 -0.14413,0 -0.018,-0.009 -0.0328,-0.0239 -0.0418,-0.0418 -0.012,-0.0181 -0.0185,-0.0392 -0.0212,-0.0602 -0.006,-0.027 -0.006,-0.0541 -0.006,-0.0811 l 0,-0.46205 c 0,-0.027 0.003,-0.0541 0.006,-0.0811 0.003,-0.021 0.0122,-0.0391 0.0212,-0.0571 0.009,-0.018 0.0238,-0.033 0.0418,-0.039 0.024,-0.009 0.0488,-0.0133 0.0732,-0.0133 z m -18.015404,0.001 c 0.024,-0.003 0.0477,0.003 0.0718,0.0121 0.018,0.006 0.0331,0.021 0.0421,0.039 0.009,0.018 0.0182,0.0361 0.0212,0.0571 0.006,0.027 0.006,0.0538 0.006,0.0808 l 0,0.46234 c 0,0.027 -0.003,0.0541 -0.006,0.0811 -0.006,0.0211 -0.0122,0.0419 -0.0212,0.0599 -0.009,0.018 -0.0241,0.0331 -0.0421,0.0421 -0.024,0.0123 -0.0477,0.015 -0.0718,0.015 -0.024,0 -0.051,-0.006 -0.0721,-0.015 -0.018,-0.009 -0.0331,-0.0241 -0.0421,-0.0421 -0.012,-0.0181 -0.0179,-0.0389 -0.0209,-0.0599 -0.003,-0.027 -0.006,-0.0541 -0.006,-0.0811 l 0,-0.46234 c 0,-0.027 2.1e-4,-0.0538 0.006,-0.0808 0.006,-0.018 0.0119,-0.0391 0.0209,-0.0571 0.009,-0.018 0.0241,-0.033 0.0421,-0.039 0.024,-0.009 0.0481,-0.0121 0.0721,-0.0121 z m 0.645181,0 0.0661,0 c 0.063,0 0.10796,0.012 0.13197,0.039 0.024,0.027 0.0359,0.069 0.0359,0.13508 0,0.066 -0.0118,0.11117 -0.0418,0.13819 -0.03,0.027 -0.0752,0.039 -0.13819,0.039 l -0.054,0 z m 2.161029,0 c 0.024,-0.003 0.0481,0.003 0.0721,0.0121 0.018,0.006 0.0331,0.021 0.0421,0.039 0.009,0.018 0.0181,0.0361 0.0209,0.0571 0.006,0.027 0.006,0.0541 0.006,0.0811 l 0,0.46205 c 0,0.027 -0.003,0.0541 -0.006,0.0811 -0.006,0.0211 -0.0119,0.0419 -0.0209,0.0599 -0.009,0.018 -0.0241,0.0331 -0.0421,0.0421 -0.021,0.0123 -0.0481,0.015 -0.0721,0.015 -0.027,0 -0.0511,-0.006 -0.0721,-0.015 -0.018,-0.009 -0.0331,-0.0241 -0.0421,-0.0421 -0.009,-0.0181 -0.0151,-0.0389 -0.0178,-0.0599 -0.003,-0.027 -0.006,-0.0541 -0.006,-0.0811 l 0,-0.46221 c 0,-0.027 -7.9e-5,-0.0541 0.006,-0.0811 0.003,-0.018 0.009,-0.0391 0.0178,-0.0571 0.009,-0.018 0.0241,-0.033 0.0421,-0.039 0.024,-0.009 0.0481,-0.0121 0.0721,-0.0121 z m 2.683281,2.9e-4 c 0.024,-0.003 0.0481,0.003 0.0721,0.0119 0.018,0.006 0.0328,0.021 0.0418,0.039 0.009,0.018 0.0184,0.0361 0.0212,0.0571 0.006,0.027 0.006,0.0541 0.006,0.0811 l 0,0.46205 c 0,0.027 -0.003,0.0541 -0.006,0.0811 -0.006,0.021 -0.0121,0.0419 -0.0212,0.0599 -0.009,0.018 -0.0238,0.0331 -0.0418,0.0421 -0.024,0.0123 -0.0481,0.015 -0.0721,0.015 -0.024,0 -0.0511,-0.006 -0.0721,-0.015 -0.021,-0.009 -0.0359,-0.0241 -0.045,-0.0421 -0.009,-0.018 -0.0154,-0.0389 -0.0181,-0.0599 -0.003,-0.027 -0.006,-0.0541 -0.006,-0.0811 l 0,-0.46205 c 0,-0.027 -7.1e-5,-0.0541 0.006,-0.0811 0.003,-0.0181 0.009,-0.0391 0.0181,-0.0571 0.012,-0.018 0.027,-0.033 0.045,-0.039 0.024,-0.009 0.0481,-0.0119 0.0721,-0.0119 z m 1.56108,0 0.069,0 c 0.0241,0 0.045,9e-5 0.063,0.003 0.015,0.003 0.03,0.006 0.045,0.0119 0.012,0.006 0.0212,0.0121 0.0302,0.0212 0.009,0.012 0.0151,0.0238 0.0178,0.0359 0.006,0.015 0.009,0.0331 0.009,0.0481 0.003,0.018 0.003,0.0391 0.003,0.0661 0,0.066 -0.0121,0.10797 -0.0362,0.13198 -0.024,0.024 -0.0689,0.0362 -0.13197,0.0362 l -0.0661,0 -0.003,0 z m 3.7905,0 c 0.024,-0.003 0.0481,0.003 0.0721,0.0119 0.018,0.006 0.0328,0.021 0.0418,0.039 0.009,0.018 0.0185,0.0361 0.0212,0.0571 0.006,0.027 0.006,0.0541 0.006,0.0811 l 0,0.46205 c 0,0.027 -0.003,0.0541 -0.006,0.0811 -0.006,0.021 -0.0122,0.0419 -0.0212,0.0599 -0.009,0.018 -0.0238,0.0331 -0.0418,0.0421 -0.021,0.0123 -0.0481,0.015 -0.0721,0.015 -0.024,0 -0.0511,-0.006 -0.0721,-0.015 -0.018,-0.009 -0.0331,-0.0241 -0.0421,-0.0421 -0.012,-0.018 -0.0182,-0.0389 -0.0209,-0.0599 -0.006,-0.027 -0.006,-0.0541 -0.006,-0.0811 l 0,-0.46205 c 0,-0.027 0.003,-0.0541 0.006,-0.0811 0.003,-0.0181 0.0119,-0.0391 0.0209,-0.0571 0.009,-0.018 0.0241,-0.033 0.0421,-0.039 0.024,-0.009 0.0481,-0.0119 0.0721,-0.0119 z m -12.891041,0.10174 0.0899,0.47731 -0.17691,0 z m 11.231051,2.9e-4 0.0901,0.47703 -0.17719,0 z m 3.14561,0 0.0901,0.47703 -0.17719,0 z"
       id="path4533-1-7"
       inkscape:connector-curvature="0"
       sodipodi:nodetypes="ccccccccccccccccccssccccccccccccccscccccccccccccscccccccssccccccccccccccsccscccccsccccccscccccsccccccscccccccsccccccccccccccccccccccccccccccccssssssssssssssccsscccscsscccccsscccscsscccccccssccccccccccsccssccccccsscccccsccscsscsccsccccccccccccccccccccccccccsccccccccccccccssccccccccccsccssscccccscsccccsccssscsccccsccccssscccscsscccccsscccscsscccccsscccsssscccccccccscccccccccccccccsccccccccccccsscccscssccccccccccccccccccccccccccccccccccccccccsccccccccccccccccccccccccccccccccccccccccccsccccccsccccscccccsccsccccsccccsccccccccccccccccccccccccccccccccccccccccccccccccccccccccccccccsccscsccscsccsccccscsccsccccccccccccccccccccccccccccccccccscccssccccccsscscssscccssccccccsscscssccscsscscscccsscscccscscsccccscsscscscccsscccccccscsscccssccsscccccscccccscscccccscsscscscccsscscccccccccccccc" />
    <path
       style="fill:#fcd925;fill-opacity:1;stroke:#fcd925;stroke-width:0.04612013;stroke-linecap:round;stroke-linejoin:round;stroke-miterlimit:4;stroke-dasharray:none;stroke-opacity:1"
       d="m 65.118312,134.6765 c -0.10836,-0.0631 -0.10315,-0.25778 0.0085,-0.31753 0.05996,-0.0321 1.769737,-0.0477 5.214607,-0.0477 3.444869,0 5.154647,0.0156 5.214606,0.0477 0.116083,0.0621 0.116083,0.25747 0,0.3196 -0.122855,0.0657 -10.324745,0.0637 -10.437711,-0.002 z"
       id="path4137"
       inkscape:connector-curvature="0" />
    <path
       style="fill:#fcd925;fill-opacity:1;stroke:#fcd925;stroke-width:0.04612013;stroke-linecap:round;stroke-linejoin:round;stroke-miterlimit:4;stroke-dasharray:none;stroke-opacity:1"
       d="m 75.887325,133.32682 c -0.298487,-0.29233 -0.349285,-0.36307 -0.308192,-0.42918 0.130216,-0.20948 0.187757,-0.19184 0.550955,0.16894 0.191195,0.18992 0.341917,0.37396 0.334937,0.40898 -0.007,0.035 -0.0594,0.0946 -0.116499,0.13248 -0.09952,0.066 -0.118576,0.0543 -0.461201,-0.28122 z"
       id="path4139"
       inkscape:connector-curvature="0" />
    <path
       style="fill:#fcd925;fill-opacity:1;stroke:#fcd925;stroke-width:0.04612013;stroke-linecap:round;stroke-linejoin:round;stroke-miterlimit:4;stroke-dasharray:none;stroke-opacity:1"
       d="m 77.428543,132.89688 c -0.01691,-0.0169 -0.03075,-0.24448 -0.03075,-0.5057 0,-0.41449 0.01083,-0.48075 0.08511,-0.5205 0.06126,-0.0328 0.112955,-0.026 0.18448,0.0241 0.08956,0.0627 0.09937,0.11169 0.09937,0.49591 0,0.27007 -0.02028,0.44658 -0.05534,0.48164 -0.05966,0.0597 -0.232758,0.0747 -0.282869,0.0246 z"
       id="path4141"
       inkscape:connector-curvature="0" />
    <path
       style="fill:#fcd925;fill-opacity:1;stroke:#fcd925;stroke-width:0.04612013;stroke-linecap:round;stroke-linejoin:round;stroke-miterlimit:4;stroke-dasharray:none;stroke-opacity:1"
       d="m 78.690947,133.39217 c -0.02617,-0.0489 -0.03637,-0.11812 -0.02266,-0.15383 0.03997,-0.10417 0.652838,-0.63356 0.733456,-0.63356 0.04039,0 0.09749,0.0528 0.12688,0.1173 0.05006,0.10986 0.03327,0.13763 -0.264943,0.43814 -0.333446,0.33602 -0.48433,0.39713 -0.572732,0.23195 z"
       id="path4145"
       inkscape:connector-curvature="0" />
    <path
       style="fill:#fcd925;fill-opacity:1;stroke:#fcd925;stroke-width:0.04612013;stroke-linecap:round;stroke-linejoin:round;stroke-miterlimit:4;stroke-dasharray:none;stroke-opacity:1"
       d="m 79.507792,134.6765 c -0.108361,-0.0631 -0.103151,-0.25778 0.0085,-0.31753 0.122188,-0.0654 3.850207,-0.0654 3.972395,0 0.05062,0.0271 0.08921,0.0962 0.08921,0.1598 0,0.0636 -0.03859,0.13271 -0.08921,0.1598 -0.120943,0.0647 -3.869557,0.0628 -3.980893,-0.002 z"
       id="path4147"
       inkscape:connector-curvature="0" />
    <path
       style="fill:#fcd925;fill-opacity:1;stroke:#fcd925;stroke-width:0.04612013;stroke-linecap:round;stroke-linejoin:round;stroke-miterlimit:4;stroke-dasharray:none;stroke-opacity:1"
       d="m 61.264976,142.74199 c -0.03044,-0.0304 -0.05534,-0.0885 -0.05534,-0.12914 0,-0.0406 0.0249,-0.0987 0.05534,-0.12913 0.04275,-0.0428 2.640785,-0.0554 11.413108,-0.0554 11.310563,0 11.35797,4e-4 11.40713,0.0922 0.03507,0.0655 0.03507,0.11895 0,0.18448 -0.04916,0.0919 -0.09657,0.0922 -11.40713,0.0922 -8.772323,0 -11.370363,-0.0126 -11.413108,-0.0553 z"
       id="path4149"
       inkscape:connector-curvature="0" />
  </g>
</svg>
